<?xml version="1.0" encoding="UTF-8" standalone="no"?>
<svg
   height="128"
   width="128"
   version="1.1"
   id="svg7"
   sodipodi:docname="icon.svg"
   xml:space="preserve"
   inkscape:version="1.3.2 (091e20e, 2023-11-25, custom)"
   xmlns:inkscape="http://www.inkscape.org/namespaces/inkscape"
   xmlns:sodipodi="http://sodipodi.sourceforge.net/DTD/sodipodi-0.dtd"
   xmlns:xlink="http://www.w3.org/1999/xlink"
   xmlns="http://www.w3.org/2000/svg"
   xmlns:svg="http://www.w3.org/2000/svg"><defs
     id="defs7"><linearGradient
       inkscape:collect="always"
       xlink:href="#linearGradient51"
       id="linearGradient81"
       gradientUnits="userSpaceOnUse"
       gradientTransform="matrix(0.79397195,0,0,0.79406905,-319.40951,-359.24836)"
       x1="460.70163"
       y1="533.83105"
       x2="521.85077"
       y2="595.22528" /><linearGradient
       id="linearGradient51"
       inkscape:collect="always"><stop
         style="stop-color:#ff1300;stop-opacity:1"
         offset="0"
         id="stop51" /><stop
         style="stop-color:#ff6e01;stop-opacity:1"
         offset="1"
         id="stop52" /></linearGradient></defs><sodipodi:namedview
     id="namedview7"
     pagecolor="#505050"
     bordercolor="#eeeeee"
     borderopacity="1"
     inkscape:showpageshadow="0"
     inkscape:pageopacity="0"
     inkscape:pagecheckerboard="0"
     inkscape:deskcolor="#505050"
     inkscape:zoom="5.0491844"
     inkscape:cx="-14.556806"
     inkscape:cy="55.355475"
     inkscape:window-width="2164"
     inkscape:window-height="1509"
     inkscape:window-x="1299"
     inkscape:window-y="559"
     inkscape:window-maximized="0"
     inkscape:current-layer="svg7" /><rect
     x="2"
     y="2"
     width="124"
     height="124"
     rx="14"
     fill="#363d52"
     stroke="#212532"
     stroke-width="4"
     id="rect1" /><g
     transform="matrix(0.06757703,0,0,0.06498875,27.263883,59.908871)"
     id="g7"><g
       fill="#ffffff"
       id="g4"><path
         d="m 105,673 v 33 q 407,354 814,0 v -33 z"
         id="path1" /><path
         fill="#478cbf"
         d="m 105,673 152,14 q 12,1 15,14 l 4,67 132,10 8,-61 q 2,-11 15,-15 h 162 q 13,4 15,15 l 8,61 132,-10 4,-67 q 3,-13 15,-14 L 919,673 V 427 q 30,-39 56,-81 -35,-59 -83,-108 -43,20 -82,47 -40,-37 -88,-64 7,-51 8,-102 -59,-28 -123,-42 -26,43 -46,89 -49,-7 -98,0 -20,-46 -46,-89 -64,14 -123,42 1,51 8,102 -48,27 -88,64 -39,-27 -82,-47 -48,49 -83,108 26,42 56,81 z m 0,33 v 39 c 0,276 813,276 813,0 v -39 l -134,12 -5,69 q -2,10 -14,13 l -162,11 q -12,0 -16,-11 L 577,735 H 447 l -10,65 q -4,11 -16,11 L 259,800 q -12,-3 -14,-13 l -5,-69 z"
         id="path2" /><path
         d="m 483,600 c 3,34 55,34 58,0 v -86 c -3,-34 -55,-34 -58,0 z"
         id="path3" /><circle
         cx="725"
         cy="526"
         r="90"
         id="circle3" /><circle
         cx="299"
         cy="526"
         r="90"
         id="circle4" /></g><g
       fill="#414042"
       id="g6"><circle
         cx="307"
         cy="532"
         r="60"
         id="circle5" /><circle
         cx="717"
         cy="532"
         r="60"
         id="circle6" /></g></g><path
     style="fill:#fbfb44;fill-opacity:1"
     d="m 11.982133,57.038916 -4.1095741,-4.109575 4.8027561,-7.476455 -2.079544,-7.22889 -7.3279161,-2.970777 0.495129,-6.139605 7.6249941,-1.386363 3.762984,-6.733761 -3.069803,-7.724019 4.555191,-3.4659071 5.941554,4.7532431 8.021098,-1.980518 3.168828,-8.0210978 5.743502,0.8912337 1.188311,8.4172011 6.931813,3.663958 7.327916,-3.36688 3.564932,4.852268 -4.357139,6.337658 1.881492,7.823045 7.922071,3.168829 -0.792207,5.941554 -8.120123,0.594155 -3.762984,6.535709 3.86201,8.120124 -5.248373,3.762984 -6.436683,-5.149347 -6.634735,2.277596 -3.663958,7.624994 -6.139606,-0.792208 -0.990259,-7.823045 -6.634735,-3.762984 z"
     id="path7" /><circle
     style="fill:#333b51;fill-opacity:1"
     id="path8"
     cx="33.619293"
     cy="34.906631"
     r="3.6144452" /><path
     style="fill:#fbfb44;fill-opacity:1;stroke-width:0.661836"
     d="m 84.69106,57.610587 -2.719863,-2.719864 3.178635,-4.948185 -1.376316,-4.784338 -4.849877,-1.966166 0.327694,-4.06341 5.046494,-0.917545 2.490477,-4.456644 -2.031705,-5.112032 3.014788,-2.293861 3.932333,3.145866 5.308649,-1.310778 2.097244,-5.308649 3.801247,0.589851 0.78647,5.570804 4.58773,2.424939 4.84987,-2.228322 2.3594,3.211405 -2.88371,4.194488 1.24524,5.177571 5.24311,2.097244 -0.52431,3.932333 -5.37419,0.393233 -2.49047,4.325566 2.55601,5.374189 -3.47356,2.490477 -4.26003,-3.408022 -4.3911,1.507395 -2.42494,5.046493 -4.063411,-0.524311 -0.655389,-5.177571 -4.391104,-2.490478 z"
     id="path9" /><circle
     style="fill:#333b51;fill-opacity:1;stroke-width:0.661836"
     id="circle9"
     cx="99.011299"
     cy="42.962646"
     r="2.392169" /><path
     style="color:#000000;fill:#ffffff;stroke-width:0.34657;-inkscape-stroke:none;paint-order:stroke fill markers"
     d="m 56.656816,53.782447 -1.841227,5.867215 -3.586646,1.564965 -6.589273,-1.273339 -9.676851,15.017999 2.64784,4.556912 1.308417,0.450528 -0.134865,0.880818 -0.809328,8.005046 -5.789383,5.782232 5.337516,18.863917 29.514782,12.14799 29.518839,-12.14812 5.337513,-18.863922 -5.793434,-5.787625 -0.89026,-8.880336 1.308413,-0.450528 2.646496,-4.556779 -9.682241,-15.017998 -6.583872,1.27334 -3.586667,-1.564966 -1.841216,-5.867213 z"
     id="path77"
     sodipodi:nodetypes="ccccccccccccccccccccccc"
     inkscape:label="Outline" /><path
     id="path24"
     style="font-variation-settings:normal;vector-effect:none;fill:url(#linearGradient81);fill-opacity:1;stroke:none;stroke-width:0.0834712;stroke-linecap:butt;stroke-linejoin:miter;stroke-miterlimit:4;stroke-dasharray:none;stroke-dashoffset:0;stroke-opacity:1;-inkscape-stroke:none;paint-order:stroke fill markers;stop-color:#000000"
     d="m 59.626293,57.2537 -1.633585,5.160422 c -1.779388,0.769448 -3.558797,1.538889 -5.337934,2.308857 -1.887844,-0.397534 -3.780491,-0.858041 -5.693515,-1.088754 -0.301989,0.339816 -7.9431,12.090224 -7.940949,12.21164 0.352053,0.861942 0.956616,1.603399 1.41389,2.410012 l 27.792179,9.761365 27.792168,-9.761365 c 0.457284,-0.806613 1.061835,-1.54807 1.413885,-2.410012 0.0015,-0.121401 -7.638947,-11.871824 -7.940949,-12.21164 -1.913026,0.230713 -3.805645,0.69122 -5.693504,1.088754 C 82.018817,63.953011 80.2394,63.18357 78.460024,62.414122 L 76.826454,57.2537 Z M 42.550817,81.806078 c -0.03445,-0.01063 -0.103763,0.04083 -0.106265,0.05815 -0.334745,2.729297 -0.988974,8.189726 -0.988974,8.189726 l 1.693393,7.32004 12.811525,5.819946 12.265843,-4.586426 12.265867,4.586426 12.8115,-5.819946 1.693411,-7.32004 c 0,0 -0.654225,-5.460429 -0.988981,-8.189726 -0.0035,-0.02328 -0.125326,-0.107493 -0.125326,-0.02234 -8.386921,2.981022 -17.135471,5.86806 -25.656551,8.808438 -8.521061,-2.940378 -17.269597,-5.827416 -25.656547,-8.808438 0,-0.0213 -0.0083,-0.03197 -0.01879,-0.03581 z m 6.443196,6.524168 c 4.023838,1.387892 8.08066,2.766184 12.137278,4.144309 a 6.5318066,6.5300136 0 0 1 -0.30693,1.248048 6.5318066,6.5300136 0 0 1 -8.389862,3.863751 6.5318066,6.5300136 0 0 1 -3.864794,-8.387586 6.5318066,6.5300136 0 0 1 0.424308,-0.868522 z m 38.464712,0 a 6.5318066,6.5300136 0 0 1 0.424345,0.868522 6.5318066,6.5300136 0 0 1 -3.864832,8.387586 6.5318066,6.5300136 0 0 1 -8.389873,-3.863751 6.5318066,6.5300136 0 0 1 -0.306911,-1.248048 c 4.056624,-1.378125 8.11344,-2.756417 12.137271,-4.144309 z m -48.219245,4.632803 -3.076533,3.047745 4.608921,16.156986 14.566968,5.97362 -0.783816,-12.56876 -13.814468,-6.426929 z m 57.973799,0 -1.501105,6.182662 -13.814449,6.426929 -0.783816,12.56876 14.566967,-5.97362 4.608924,-16.156993 z m -28.9869,8.322191 -10.923538,4.32204 0.66304,13.5776 10.260498,4.17897 10.260487,-4.17897 0.663055,-13.5776 z"
     inkscape:label="Fill" /></svg>
