<?xml version="1.0" encoding="UTF-8" standalone="no"?>
<!-- Created with Inkscape (http://www.inkscape.org/) -->

<svg
   width="2000"
   height="2000"
   viewBox="0 0 529.16665 529.16666"
   version="1.1"
   id="svg1"
   inkscape:version="1.3.2 (091e20ef0f, 2023-11-25)"
   sodipodi:docname="Redot Logo - Red Orange (outlined).svg"
   inkscape:export-filename="../../Logo (profile picture)/Red Orange Outlined on Black (circle).png"
   inkscape:export-xdpi="96"
   inkscape:export-ydpi="96"
   xmlns:inkscape="http://www.inkscape.org/namespaces/inkscape"
   xmlns:sodipodi="http://sodipodi.sourceforge.net/DTD/sodipodi-0.dtd"
   xmlns:xlink="http://www.w3.org/1999/xlink"
   xmlns="http://www.w3.org/2000/svg"
   xmlns:svg="http://www.w3.org/2000/svg"
   xmlns:rdf="http://www.w3.org/1999/02/22-rdf-syntax-ns#"
   xmlns:cc="http://creativecommons.org/ns#"
   xmlns:dc="http://purl.org/dc/elements/1.1/">
  <sodipodi:namedview
     id="namedview1"
     pagecolor="#ffffff"
     bordercolor="#000000"
     borderopacity="0.25"
     inkscape:showpageshadow="2"
     inkscape:pageopacity="0.0"
     inkscape:pagecheckerboard="true"
     inkscape:deskcolor="#d1d1d1"
     inkscape:document-units="px"
     inkscape:zoom="0.17523318"
     inkscape:cx="1032.9094"
     inkscape:cy="1021.4961"
     inkscape:window-width="1920"
     inkscape:window-height="938"
     inkscape:window-x="0"
     inkscape:window-y="0"
     inkscape:window-maximized="1"
     inkscape:current-layer="g39"
     showguides="true">
    <sodipodi:guide
       position="264.58458,443.12978"
       orientation="0,-1"
       id="guide1"
       inkscape:locked="false" />
    <sodipodi:guide
       position="91.392818,240.13421"
       orientation="1,0"
       id="guide2"
       inkscape:locked="false" />
    <sodipodi:guide
       position="437.77446,240.13496"
       orientation="1,0"
       id="guide3"
       inkscape:locked="false" />
    <sodipodi:guide
       position="264.5705,86.036589"
       orientation="0,-1"
       id="guide4"
       inkscape:locked="false" />
    <sodipodi:guide
       position="261.86985,529.16666"
       orientation="0,-1"
       id="guide5"
       inkscape:locked="false" />
    <sodipodi:guide
       position="0,232.74453"
       orientation="1,0"
       id="guide6"
       inkscape:locked="false" />
    <sodipodi:guide
       position="529.16665,240.92796"
       orientation="1,0"
       id="guide7"
       inkscape:locked="false" />
    <sodipodi:guide
       position="265.46076,0"
       orientation="0,-1"
       id="guide8"
       inkscape:locked="false" />
  </sodipodi:namedview>
  <defs
     id="defs1">
    <linearGradient
       inkscape:collect="always"
       xlink:href="#linearGradient51"
       id="linearGradient81"
       gradientUnits="userSpaceOnUse"
       gradientTransform="matrix(1.1048219,0,0,1.104957,-437.36245,-380.89469)"
       x1="460.70163"
       y1="533.83105"
       x2="521.85077"
       y2="595.22528" />
    <linearGradient
       id="linearGradient51"
       inkscape:collect="always">
      <stop
         style="stop-color:#ff1300;stop-opacity:1"
         offset="0"
         id="stop51" />
      <stop
         style="stop-color:#ff6e01;stop-opacity:1"
         offset="1"
         id="stop52" />
    </linearGradient>
  </defs>
  <g
     inkscape:label="Layer 1"
     inkscape:groupmode="layer"
     id="layer1">
    <g
       id="g39"
       transform="matrix(3.5709301,0,0,3.5709301,-99.796043,-609.11479)"
       style="stroke-width:0.280039"
       inkscape:label="Symbol">
      <path
         style="stroke-width:0.0256932;color:#000000;fill:#ffffff;-inkscape-stroke:none;paint-order:stroke fill markers"
         d="m 1540.4621,105.5724 -0.1365,0.43497 -0.2659,0.11602 -0.4885,-0.0944 -0.7174,1.11337 0.1963,0.33783 0.097,0.0334 -0.01,0.0653 -0.06,0.59346 -0.4292,0.42867 0.3957,1.39849 2.1881,0.9006 2.1884,-0.90061 0.3957,-1.39849 -0.4295,-0.42907 -0.066,-0.65835 0.097,-0.0334 0.1962,-0.33782 -0.7178,-1.11337 -0.4881,0.0944 -0.2659,-0.11602 -0.1365,-0.43497 z"
         id="path77"
         sodipodi:nodetypes="ccccccccccccccccccccccc"
         inkscape:label="Outline"
         transform="matrix(18.7698,0,0,18.7698,-28826.573,-1786.9032)" />
      <path
         id="path24"
         style="fill:url(#linearGradient81);fill-opacity:1;stroke-width:0.116151;font-variation-settings:normal;opacity:1;vector-effect:none;stroke:none;stroke-linecap:butt;stroke-linejoin:miter;stroke-miterlimit:4;stroke-dasharray:none;stroke-dashoffset:0;stroke-opacity:1;-inkscape-stroke:none;paint-order:stroke fill markers;stop-color:#000000;stop-opacity:1"
         d="m 90.070645,198.67313 -2.273159,7.18079 c -2.47603,1.0707 -4.952097,2.14139 -7.427805,3.2128 -2.626963,-0.55317 -5.260586,-1.19397 -7.922589,-1.51501 -0.420232,0.47286 -11.052927,16.8237 -11.049924,16.99265 0.489877,1.1994 1.331139,2.23115 1.967431,3.35356 l 38.673171,13.58306 38.67315,-13.58306 c 0.63632,-1.12241 1.47756,-2.15416 1.96744,-3.35356 0.002,-0.16893 -10.62969,-16.51979 -11.04993,-16.99265 -2.662,0.32104 -5.2956,0.96184 -7.92258,1.51501 -2.47573,-1.07141 -4.95181,-2.1421 -7.42783,-3.2128 l -2.27314,-7.18079 z m -23.760747,34.16494 c -0.04793,-0.0147 -0.144336,0.0568 -0.147915,0.0809 -0.465814,3.79785 -1.376174,11.3961 -1.376174,11.3961 l 2.356393,10.18593 17.827373,8.09853 17.068085,-6.38206 17.06811,6.38206 17.82736,-8.09853 2.3564,-10.18593 c 0,0 -0.91036,-7.59825 -1.37618,-11.3961 -0.005,-0.0324 -0.17438,-0.14959 -0.17438,-0.0311 -11.6705,4.14813 -23.84422,8.16548 -35.70141,12.25705 -11.857158,-4.09157 -24.030878,-8.10892 -35.701425,-12.25705 0,-0.0296 -0.01049,-0.0445 -0.02649,-0.0498 z m 8.965805,9.07846 c 5.599229,1.93127 11.244326,3.84918 16.889166,5.76686 a 9.0890898,9.0865953 0 0 1 -0.427095,1.73667 9.0890898,9.0865953 0 0 1 -11.674604,5.37645 9.0890898,9.0865953 0 0 1 -5.377913,-11.67142 9.0890898,9.0865953 0 0 1 0.590446,-1.20856 z m 53.524117,0 a 9.0890898,9.0865953 0 0 1 0.59048,1.20856 9.0890898,9.0865953 0 0 1 -5.37796,11.67142 9.0890898,9.0865953 0 0 1 -11.67461,-5.37645 9.0890898,9.0865953 0 0 1 -0.42707,-1.73667 c 5.64484,-1.91768 11.28995,-3.83559 16.88916,-5.76686 z m -67.097679,6.4466 -4.281035,4.24098 6.413371,22.48263 20.270118,8.31238 -1.090685,-17.4896 -19.223008,-8.94312 z m 80.671269,0 -2.08881,8.60327 -19.22298,8.94312 -1.09069,17.4896 20.27012,-8.31238 6.41337,-22.48264 z m -40.33564,11.58042 -15.200246,6.01419 0.922632,18.89339 14.277614,5.8151 14.2776,-5.8151 0.92265,-18.89339 z"
         inkscape:label="Fill" />
    </g>
  </g>
  <metadata
     id="metadata3">
    <rdf:RDF>
      <cc:Work
         rdf:about="">
        <dc:creator>
          <cc:Agent>
            <dc:title>A. Irsyad</dc:title>
          </cc:Agent>
        </dc:creator>
        <dc:description>Created for Redot Engine</dc:description>
      </cc:Work>
    </rdf:RDF>
  </metadata>
</svg>
